<?xml version="1.0" encoding="UTF-8"?>
<svg id="Layer_2" data-name="Layer 2" xmlns="http://www.w3.org/2000/svg" viewBox="0 0 283.39 143.65">
  <defs>
    <style>
      .cls-1 {
        fill: #191919;
        stroke-width: 0px;
      }
    </style>
  </defs>
  <g id="Layer_2-2">
    <g id="Layer_1-2" >
      <g>
        <path class="cls-1" d="M47.04,50.66v16.8H0V.26h16.8v50.4h30.24Z"/>
        <path class="cls-1" d="M58.32,57.62c-6.56-6.56-9.84-14.48-9.84-23.76s3.28-17.2,9.84-23.76C64.88,3.54,72.8.26,82.08.26s17.28,3.26,23.81,9.79c6.53,6.53,9.79,14.46,9.79,23.81s-3.28,17.2-9.84,23.76c-6.56,6.56-14.48,9.84-23.76,9.84s-17.2-3.28-23.76-9.84ZM70.18,21.95c-3.26,3.26-4.9,7.23-4.9,11.9s1.63,8.64,4.9,11.9,7.23,4.9,11.9,4.9,8.64-1.63,11.9-4.9,4.9-7.23,4.9-11.9-1.63-8.64-4.9-11.9c-3.26-3.26-7.23-4.9-11.9-4.9s-8.64,1.63-11.9,4.9Z"/>
        <path class="cls-1" d="M179.51.29l-6.49,16.77c-6.17,0-15.02-.09-26.54-.26-6.27-.09-9.41,1.12-9.41,3.36,0,1.54,1.25,2.7,3.74,3.5,2.5.8,5.5,1.5,9.02,2.11s7.06,1.49,10.61,2.64,6.58,3.3,9.07,6.43c2.5,3.14,3.74,7.2,3.74,12.19,0,6.59-2.34,11.6-7.01,15.02s-11.27,5.14-19.78,5.14c-4.8,0-9.44-.38-13.92-1.15-4.48-.77-7.78-1.57-9.89-2.4l-3.07-1.15,6.72-16.13c7.62,2.69,14.34,4.03,20.16,4.03,6.21,0,9.31-1.12,9.31-3.36,0-1.54-1.25-2.7-3.74-3.5-2.5-.8-5.51-1.5-9.02-2.11-3.52-.61-7.06-1.49-10.61-2.64-3.55-1.15-6.58-3.3-9.07-6.43-2.5-3.13-3.74-7.2-3.74-12.19,0-6.59,2.4-11.6,7.2-15.02,4.8-3.42,11.36-5.14,19.68-5.14"/>
        <path class="cls-1" d="M226.09.26v16.8h-18.43v62.16h-16.8V17.06h-18.21c-.12,0-.22-.1-.22-.22V.26h53.66Z"/>
        <g>
          <path class="cls-1" d="M108.3,76.45v67.2h-16.8v-25.25h-20.06v25.25h-16.8v-67.2h16.8v25.15h20.06v-25.15h16.8Z"/>
          <path class="cls-1" d="M114.54,76.45h16.8v67.2h-16.8s0-67.2,0-67.2Z"/>
          <path class="cls-1" d="M184.61,126.85v16.8h-47.04v-67.2h16.8v50.4h30.24,0Z"/>
          <path class="cls-1" d="M237.89,126.85v16.8h-47.04v-67.2h16.8v50.4h30.24,0Z"/>
          <path class="cls-1" d="M225.89,143.65v-16.8c6.97,0,25.82-.29,30.72-.29,6.72,0,9.31-1.12,9.31-3.36,0-1.54-1.25-2.7-3.74-3.5-2.5-.8-5.5-1.5-9.02-2.11s-7.06-1.49-10.61-2.64-6.58-3.3-9.07-6.43c-2.5-3.13-3.74-7.2-3.74-12.19,0-6.59,2.4-11.6,7.2-15.02,4.8-3.42,11.36-5.14,19.68-5.14,4.93,0,9.34.45,13.25,1.34,3.9.9,6.59,1.79,8.06,2.69l2.11,1.34-6.72,15.46c-5.31-2.69-10.88-4.03-16.7-4.03-6.27,0-9.41,1.12-9.41,3.36,0,1.54,1.25,2.7,3.74,3.5,2.5.8,5.5,1.5,9.02,2.11s7.06,1.49,10.61,2.64,6.58,3.3,9.07,6.43c2.5,3.14,3.74,7.2,3.74,12.19,0,6.59-2.34,11.6-7.01,15.02s-11.27,5.14-19.78,5.14"/>
        </g>
      </g>
    </g>
  </g>
</svg>